<?xml version="1.0" encoding="utf-8"?>
<!-- Generator: Adobe Illustrator 24.1.0, SVG Export Plug-In . SVG Version: 6.00 Build 0)  -->
<svg version="1.1" id="레이어_1" xmlns="http://www.w3.org/2000/svg" xmlns:xlink="http://www.w3.org/1999/xlink" x="0px"
	 y="0px" viewBox="0 0 20 20" style="enable-background:new 0 0 20 20;" xml:space="preserve">
<style type="text/css">
	.st0{fill:#FFFFFF;}
</style>
<g>
	<path class="st0" d="M10,20c5.5,0,10-4.5,10-10c0-5.5-4.5-10-10-10S0,4.5,0,10C0,15.5,4.5,20,10,20z M8.6,2.8
		c0.6-0.3,1.3-0.1,1.7,0.4l4,6l0.6,0.8l-0.6,0.8l-4,6c-0.4,0.6-1.2,0.7-1.7,0.3c-0.5-0.4-0.7-1.1-0.4-1.7l0-0.1l3.1-5.4L8.2,4.6
		l0-0.1C7.8,3.9,8,3.1,8.6,2.8z"/>
</g>
</svg>
