<?xml version="1.0" encoding="utf-8"?>
<!-- Generator: Adobe Illustrator 24.1.0, SVG Export Plug-In . SVG Version: 6.00 Build 0)  -->
<svg version="1.1" id="레이어_1" xmlns="http://www.w3.org/2000/svg" xmlns:xlink="http://www.w3.org/1999/xlink" x="0px"
	 y="0px" viewBox="0 0 50 20" style="enable-background:new 0 0 50 20;" xml:space="preserve">
<g>
	<path d="M40,1c5,0,9,4,9,9c0,5-4,9-9,9H10c-5,0-9-4-9-9c0-5,4-9,9-9H40 M40,0H10C4.5,0,0,4.5,0,10v0c0,5.5,4.5,10,10,10h30
		c5.5,0,10-4.5,10-10v0C50,4.5,45.5,0,40,0L40,0z"/>
</g>
<g>
	<path d="M12,13.7l-0.1,1.1C11.6,14.9,11.3,15,11,15c-0.9,0-1.4-0.3-1.6-1c-0.2,0.3-0.5,0.6-0.9,0.8C8.1,14.9,7.6,15,7,15
		c-0.7,0-1.2-0.2-1.6-0.5c-0.4-0.3-0.6-0.7-0.6-1.3c0-1.1,0.9-1.8,2.7-2.2l1.6-0.3v-0.3c0-0.4-0.1-0.7-0.3-0.9
		C8.7,9.3,8.4,9.2,8,9.2c-0.4,0-0.8,0.1-1,0.3C6.7,9.7,6.6,10,6.5,10.4L5,9.8c0.1-0.6,0.5-1.1,1-1.4c0.5-0.3,1.2-0.5,2-0.5
		c1,0,1.7,0.2,2.3,0.6s0.8,1.1,0.8,1.9v2.8c0,0.2,0,0.3,0.1,0.4c0.1,0.1,0.2,0.1,0.4,0.1C11.8,13.7,11.9,13.7,12,13.7z M8.7,13.4
		C9,13.2,9.2,13,9.2,12.6v-0.7l-1.5,0.3c-0.3,0.1-0.5,0.2-0.7,0.3c-0.2,0.1-0.2,0.3-0.2,0.5c0,0.2,0.1,0.4,0.2,0.5
		c0.1,0.1,0.3,0.2,0.6,0.2C8,13.7,8.4,13.6,8.7,13.4z"/>
	<path d="M19.8,5v9.9h-1.7l-0.1-1.3c-0.2,0.4-0.5,0.8-0.9,1c-0.4,0.3-0.9,0.4-1.4,0.4c-0.9,0-1.6-0.3-2.2-0.9
		c-0.5-0.6-0.8-1.5-0.8-2.6c0-1.1,0.3-2,0.8-2.6c0.5-0.6,1.2-0.9,2.2-0.9c0.5,0,0.9,0.1,1.3,0.3c0.4,0.2,0.6,0.5,0.9,0.9V5H19.8z
		 M17.5,13c0.3-0.4,0.4-0.9,0.4-1.5v-0.1c0-0.6-0.1-1.2-0.4-1.5c-0.3-0.4-0.7-0.5-1.2-0.5c-0.5,0-0.9,0.2-1.2,0.5
		c-0.3,0.4-0.4,0.9-0.4,1.6c0,0.7,0.1,1.2,0.4,1.6c0.3,0.4,0.7,0.5,1.2,0.5C16.8,13.6,17.2,13.4,17.5,13z"/>
	<path d="M32.1,8.5c0.5,0.4,0.7,1,0.7,1.9v4.5h-1.9v-4.1c0-0.5-0.1-0.8-0.3-1c-0.2-0.2-0.5-0.3-0.9-0.3c-0.4,0-0.8,0.2-1.1,0.5
		s-0.4,0.8-0.4,1.3v3.7h-1.9v-4.1c0-0.5-0.1-0.8-0.3-1c-0.2-0.2-0.5-0.3-0.9-0.3c-0.4,0-0.8,0.2-1.1,0.5c-0.3,0.3-0.4,0.8-0.4,1.4
		v3.6h-1.9V8h1.7l0.1,1.2c0.2-0.4,0.5-0.8,0.9-1c0.4-0.2,0.8-0.3,1.3-0.3c0.5,0,1,0.1,1.4,0.4c0.4,0.2,0.7,0.6,0.9,1
		c0.2-0.4,0.5-0.8,1-1c0.4-0.2,0.9-0.4,1.4-0.4C31.1,7.9,31.7,8.1,32.1,8.5z"/>
	<path d="M34.5,6c0-0.7,0.4-1,1.2-1c0.8,0,1.2,0.3,1.2,1c0,0.7-0.4,1-1.2,1C34.9,7,34.5,6.7,34.5,6z M36.6,14.9h-1.9V8h1.9V14.9z"/>
	<path d="M44.4,8.5c0.5,0.4,0.7,1,0.7,1.9v4.5h-1.9v-4c0-1-0.4-1.6-1.2-1.6c-0.4,0-0.8,0.2-1.1,0.5c-0.3,0.3-0.5,0.8-0.5,1.4v3.6
		h-1.9V8h1.7l0.1,1.2c0.2-0.4,0.5-0.8,0.9-1c0.4-0.2,0.9-0.3,1.4-0.3C43.4,7.9,44,8.1,44.4,8.5z"/>
</g>
</svg>
