<?xml version="1.0" encoding="utf-8"?>
<!-- Generator: Adobe Illustrator 24.1.0, SVG Export Plug-In . SVG Version: 6.00 Build 0)  -->
<svg version="1.1" id="레이어_1" xmlns="http://www.w3.org/2000/svg" xmlns:xlink="http://www.w3.org/1999/xlink" x="0px"
	 y="0px" viewBox="0 0 20 20" style="enable-background:new 0 0 20 20;" xml:space="preserve">
<style type="text/css">
	.st0{fill:#FFFFFF;}
</style>
<g>
	<path class="st0" d="M10,0C4.5,0,0,4.5,0,10c0,5.5,4.5,10,10,10s10-4.5,10-10C20,4.5,15.5,0,10,0z M11.4,17.2
		c-0.6,0.3-1.3,0.1-1.7-0.4l-4-6L5.2,10l0.6-0.8l4-6c0.4-0.6,1.2-0.7,1.7-0.3c0.5,0.4,0.7,1.1,0.4,1.7l0,0.1L8.7,10l3.1,5.4l0,0.1
		C12.2,16.1,12,16.9,11.4,17.2z"/>
</g>
</svg>
