<?xml version="1.0" encoding="utf-8"?>
<!-- Generator: Adobe Illustrator 23.0.4, SVG Export Plug-In . SVG Version: 6.00 Build 0)  -->
<svg version="1.1" id="레이어_1" xmlns="http://www.w3.org/2000/svg" xmlns:xlink="http://www.w3.org/1999/xlink" x="0px"
	 y="0px" viewBox="0 0 21 21" enable-background="new 0 0 21 21" xml:space="preserve">
<g id="패스_37">
	<path d="M15.27,4.65c0.6,0,1.08,0.49,1.08,1.08s-0.49,1.08-1.08,1.08c-0.6,0-1.08-0.49-1.08-1.08l0,0
		C14.18,5.13,14.67,4.65,15.27,4.65z"/>
</g>
<g>
	<path d="M10.5,15.52c-2.77,0-5.02-2.25-5.02-5.02c0-2.77,2.25-5.02,5.02-5.02c2.77,0,5.02,2.25,5.02,5.02
		C15.52,13.27,13.27,15.52,10.5,15.52z M10.5,7.16c-1.84,0-3.34,1.5-3.34,3.34s1.5,3.34,3.34,3.34s3.34-1.5,3.34-3.34
		S12.34,7.16,10.5,7.16z"/>
</g>
<g>
	<path d="M13.02,2.94c2.78,0,5.04,2.26,5.04,5.04v5.04c0,2.78-2.26,5.04-5.04,5.04H7.98c-2.78,0-5.04-2.26-5.04-5.04V7.98
		c0-2.78,2.26-5.04,5.04-5.04H13.02 M13.02,0H7.98C3.57,0,0,3.57,0,7.98v5.04C0,17.43,3.57,21,7.98,21h5.04
		c4.41,0,7.98-3.57,7.98-7.98V7.98C21,3.57,17.43,0,13.02,0L13.02,0z"/>
</g>
</svg>
