<?xml version="1.0" encoding="utf-8"?>
<!-- Generator: Adobe Illustrator 23.0.4, SVG Export Plug-In . SVG Version: 6.00 Build 0)  -->
<svg version="1.1" id="레이어_1" xmlns="http://www.w3.org/2000/svg" xmlns:xlink="http://www.w3.org/1999/xlink" x="0px"
	 y="0px" viewBox="0 0 27.33 17" enable-background="new 0 0 27.33 17" xml:space="preserve">
<path id="Behance" d="M24.68,2.41h-6.85v-1.7h6.85L24.68,2.41L24.68,2.41z M13.27,9.38c0.46,0.75,0.69,1.61,0.66,2.49
	c0.02,0.96-0.25,1.9-0.76,2.71c-0.31,0.52-0.72,0.97-1.2,1.34c-0.57,0.43-1.22,0.72-1.92,0.85C9.26,16.93,8.46,17,7.65,17H0V0h8.21
	c2.07,0.03,3.54,0.63,4.4,1.81c0.53,0.76,0.8,1.67,0.78,2.6c0.05,0.9-0.23,1.79-0.78,2.5c-0.36,0.41-0.8,0.74-1.29,0.97
	C12.12,8.14,12.81,8.67,13.27,9.38z M3.92,6.7h3.6c0.63,0.03,1.25-0.12,1.8-0.42c0.49-0.33,0.75-0.91,0.69-1.49
	c0.07-0.67-0.3-1.3-0.91-1.57C8.44,3.03,7.76,2.94,7.09,2.95H3.92V6.7z M10.35,11.63c0.06-0.78-0.37-1.51-1.08-1.82
	C8.73,9.6,8.15,9.5,7.57,9.52H3.92v4.53h3.59c0.59,0.03,1.18-0.07,1.72-0.3C10.01,13.34,10.45,12.5,10.35,11.63L10.35,11.63z
	 M27.22,8.86c0.1,0.8,0.13,1.61,0.1,2.42h-8.87c-0.06,1.02,0.43,2,1.27,2.57c0.53,0.32,1.14,0.48,1.75,0.46
	c1.02,0.08,1.98-0.47,2.42-1.39h3.25c-0.15,0.84-0.56,1.61-1.18,2.2c-1.2,1.23-2.87,1.88-4.58,1.78c-1.56,0.02-3.08-0.51-4.29-1.5
	c-1.24-1-1.86-2.63-1.86-4.88c0-2.11,0.56-3.73,1.68-4.86c1.16-1.14,2.73-1.75,4.36-1.69c0.98-0.02,1.96,0.18,2.86,0.57
	c0.86,0.39,1.59,1.01,2.1,1.8C26.76,7.1,27.09,7.96,27.22,8.86z M24.02,9.18c-0.01-0.73-0.31-1.43-0.85-1.92
	c-0.53-0.45-1.2-0.68-1.89-0.66c-0.7-0.04-1.39,0.21-1.9,0.7c-0.48,0.52-0.78,1.18-0.85,1.89L24.02,9.18L24.02,9.18z"/>
</svg>
