<?xml version="1.0" encoding="utf-8"?>
<!-- Svg Vector Icons : http://www.onlinewebfonts.com/icon -->
<!DOCTYPE svg PUBLIC "-//W3C//DTD SVG 1.1//EN" "http://www.w3.org/Graphics/SVG/1.1/DTD/svg11.dtd">
<svg version="1.1" xmlns="http://www.w3.org/2000/svg" xmlns:xlink="http://www.w3.org/1999/xlink" x="0px" y="0px" viewBox="0 0 1000 1000" enable-background="new 0 0 1000 1000" xml:space="preserve">
<metadata> Svg Vector Icons : http://www.onlinewebfonts.com/icon </metadata>
<g><path d="M676.1,949.3c-7.4-2.3-14.2-5.4-21.1-8.6l-8.8,8.6c-28,28.1-73,28.2-101.1,0c-28.1-27.9-27.7-73.5-0.2-101.2l8.9-8.6c-3.4-6.9-6.4-14-8.9-21.2h-12.2c-39.6,0-71.7-31.8-71.7-71.6c0-39.5,32.6-71.7,71.7-71.7h12.2c2.6-7.2,5.6-14.2,8.9-21.2l-8.9-8.6c-27.9-27.8-27.9-73,0.2-101.2c27.9-28,73.4-27.7,101.1-0.1l8.8,8.6c6.8-3.1,13.7-6.2,21.1-8.6v-12.5c0-25.3,14-46.7,34-59.3c-18.9-5.9-38.1-10-57.9-10h-43.1v-30.2c67.6-39.1,113-112.2,113-195.9c0-12.1-0.9-24.1-2.9-35.7c2-8.7,2.9-15.8,2.9-20.9c0-27.9-29-74.6-75.2-112C606.8,31.9,554,10,496,10C438,10,385.2,31.8,345.2,67.6c-46.2,37.3-75.3,84.1-75.3,112c0,5.1,1,12.2,2.8,20.9c-1.8,11.6-2.8,23.6-2.8,35.7c0,83.7,45.5,156.8,113.1,195.9v30.2h-43.2c-121,0-236.4,118.2-257.6,263.9L54.7,914.4c-6.1,41.8,22.8,75.6,64.6,75.6h562.8c-3.9-8.6-6-18-6-27.9V949.3z"/><path d="M896.7,796.5c26.9,0,49.4-22.2,49.4-49.7c0-27.6-22.2-49.8-49.4-49.8H888c-1.8-5-3.9-9.8-6-14.6l6-5.9c19-19.2,19.3-50.8-0.4-70.2c-19.2-19.5-50.4-19.5-70-0.1l-0.1,0.1l-5.9,5.9c-4.8-2.1-9.7-4.3-14.6-5.9v-8.7c0-6-1.3-11.6-3.5-17.1c-6.9-18.5-24.6-32-45.6-32.2c-0.1,0-0.5-0.1-0.6-0.1c-9.8,0-18.4,3.5-26.1,8.4c-13.9,8.9-23.4,23.6-23.4,41.1v8.7c-5.3,1.6-9.9,3.9-14.7,5.9l-6-6c-19.2-19.2-50.8-19.3-70.2,0.1c-19.5,19.5-19.5,50.9-0.1,70.2l6.1,5.9c-2.1,4.8-4.3,9.6-6.1,14.6h-8.4c-27.1,0-49.8,22.3-49.8,49.8c0,27.6,22.3,49.7,49.8,49.7h8.5c1.8,5,3.9,9.8,6.1,14.6l-6.1,5.9c-19.2,19.2-19.3,50.9,0.1,70.2c19.6,19.5,50.8,19.5,70.2,0l6-5.9c4.8,2.1,9.4,4.3,14.7,5.9v8.9c0,6.9,1.4,13.5,4,19.3c2.8,6.1,6.6,11.5,11.4,16c8.9,8.5,20.7,13.9,34.1,13.9c27.6,0,49.7-22.1,49.7-49.3v-8.9c4.9-1.6,9.8-3.9,14.6-5.9l6,5.9c19.2,19.2,50.8,19.4,70,0c19.7-19.5,19.7-50.9,0.4-70.2l-6-5.9c2-4.8,4.2-9.6,6-14.6L896.7,796.5L896.7,796.5z M747.6,846c-24.9,0-47.4-9.3-64.8-24.6c-21.1-18.2-34.5-44.6-34.5-74.6c0-54.9,44.5-99.3,99.4-99.3c12.6,0,24.5,2.6,35.6,6.9c37,14.4,63.5,50.2,63.5,92.4C846.7,801.7,802.3,846,747.6,846z"/></g>
</svg>