<?xml version="1.0" encoding="utf-8"?>
<!-- Svg Vector Icons : http://www.onlinewebfonts.com/icon -->
<!DOCTYPE svg PUBLIC "-//W3C//DTD SVG 1.1//EN" "http://www.w3.org/Graphics/SVG/1.1/DTD/svg11.dtd">
<svg version="1.1" xmlns="http://www.w3.org/2000/svg" xmlns:xlink="http://www.w3.org/1999/xlink" x="0px" y="0px" viewBox="0 0 1000 1000" enable-background="new 0 0 1000 1000" xml:space="preserve">
<metadata> Svg Vector Icons : http://www.onlinewebfonts.com/icon </metadata>
<g><path d="M143.6,544.5c0-131.9,71.7-247.1,178.2-308.7v-99.8C164.5,204.8,54.5,361.9,54.5,544.5C54.5,790.6,254,990,500,990s445.5-199.4,445.5-445.5c0-182.7-110-339.8-267.3-408.5v99.8c106.5,61.6,178.2,176.8,178.2,308.7c0,196.8-159.5,356.4-356.4,356.4S143.6,741.4,143.6,544.5z M500,10c-49.2,0-89.1,39.9-89.1,89.1v356.4c0,49.2,39.9,89.1,89.1,89.1c49.2,0,89.1-39.9,89.1-89.1V99.1C589.1,49.9,549.2,10,500,10z"/></g>
</svg>