<?xml version="1.0" encoding="utf-8"?>
<!-- Generator: Adobe Illustrator 24.1.0, SVG Export Plug-In . SVG Version: 6.00 Build 0)  -->
<svg version="1.1" id="레이어_1" xmlns="http://www.w3.org/2000/svg" xmlns:xlink="http://www.w3.org/1999/xlink" x="0px"
	 y="0px" viewBox="0 0 22 22" style="enable-background:new 0 0 22 22;" xml:space="preserve">
<style type="text/css">
	.st0{fill:#CCCCCC;}
</style>
<g>
	<path class="st0" d="M11,0C4.9,0,0,4.9,0,11s4.9,11,11,11s11-5,11-11S17,0,11,0z M12.5,19c-0.7,0.3-1.4,0.1-1.9-0.4l-4.4-6.7
		L5.7,11l0.7-0.8l4.4-6.6c0.4-0.7,1.4-0.8,1.9-0.3c0.5,0.4,0.8,1.2,0.4,1.9v0.1L9.6,11l3.4,5.9V17C13.5,17.7,13.2,18.6,12.5,19z"/>
</g>
</svg>
