<?xml version="1.0" encoding="utf-8"?>
<!-- Generator: Adobe Illustrator 24.1.0, SVG Export Plug-In . SVG Version: 6.00 Build 0)  -->
<svg version="1.1" id="레이어_1" xmlns="http://www.w3.org/2000/svg" xmlns:xlink="http://www.w3.org/1999/xlink" x="0px"
	 y="0px" viewBox="0 0 22 22" style="enable-background:new 0 0 22 22;" xml:space="preserve">
<style type="text/css">
	.st0{fill:#CCCCCC;}
</style>
<g>
	<path class="st0" d="M11,22c6.1,0,11-4.9,11-11S17.1,0,11,0S0,5,0,11S5,22,11,22z M9.5,3c0.7-0.3,1.4-0.1,1.9,0.4l4.4,6.7l0.6,0.8
		l-0.7,0.8l-4.4,6.6c-0.4,0.7-1.4,0.8-1.9,0.3c-0.5-0.4-0.8-1.2-0.4-1.9v-0.1l3.5-5.8L9.1,5.1V5C8.5,4.3,8.8,3.4,9.5,3z"/>
</g>
</svg>
